<?xml version="1.0" encoding="utf-8"?>
<!-- Generator: Adobe Illustrator 27.5.0, SVG Export Plug-In . SVG Version: 6.00 Build 0)  -->
<svg version="1.1" id="Layer_1" xmlns="http://www.w3.org/2000/svg" xmlns:xlink="http://www.w3.org/1999/xlink" x="0px" y="0px"
	 viewBox="0 0 256 256" style="enable-background:new 0 0 256 256;" xml:space="preserve">
<style type="text/css">
	.st0{clip-path:url(#SVGID_00000159471673713989913060000001725627802133476541_);}
	.st1{fill:#FFFFFF;}
	.st2{clip-path:url(#SVGID_00000164516215062306803240000004144554923723847055_);}
	.st3{fill-rule:evenodd;clip-rule:evenodd;}
	.st4{fill-rule:evenodd;clip-rule:evenodd;fill:#FEEF7C;}
	.st5{fill-rule:evenodd;clip-rule:evenodd;fill:#5CD3CB;}
</style>
<g>
	<defs>
		<rect id="SVGID_1_" y="0" width="256" height="256"/>
	</defs>
	<clipPath id="SVGID_00000085955555759249737930000017840437239218411688_">
		<use xlink:href="#SVGID_1_"  style="overflow:visible;"/>
	</clipPath>
	<g style="clip-path:url(#SVGID_00000085955555759249737930000017840437239218411688_);">
		<rect y="0" class="st1" width="256" height="256"/>
		<g>
			<defs>
				<rect id="SVGID_00000016054403400195842530000012558965493492481976_" y="0" width="256" height="256"/>
			</defs>
			<clipPath id="SVGID_00000025407978371087362820000014585473248580094625_">
				<use xlink:href="#SVGID_00000016054403400195842530000012558965493492481976_"  style="overflow:visible;"/>
			</clipPath>
			<g style="clip-path:url(#SVGID_00000025407978371087362820000014585473248580094625_);">
				<path d="M41.4,214.3l-7-9c4.5-1,7.6-4,7.6-8.8v-0.1c0-2.4-0.9-4.6-2.4-6.1c-1.9-1.9-4.9-3.1-8.7-3.1H19.9c-1.1,0-2,0.9-2,2.1
					v26.4c0,1.1,0.9,2.1,2,2.1c1.1,0,2.1-0.9,2.1-2.1v-9.6h7.9l8.2,10.7c0.5,0.6,1.1,1,1.9,1c1,0,2.1-0.9,2.1-2
					C42.1,215.2,41.8,214.8,41.4,214.3z M37.9,196.6L37.9,196.6c0,3.7-3,5.8-7.2,5.8H22v-11.2h8.7C35.3,191.1,37.9,193.2,37.9,196.6
					z"/>
				<path d="M48,215.5c0,1.1,0.9,2.1,2,2.1h18.6c1.1,0,1.9-0.8,1.9-1.9c0-1.1-0.8-1.9-1.9-1.9H52.1v-9.6h14.4c1.1,0,1.9-0.8,1.9-1.9
					c0-1-0.8-1.9-1.9-1.9H52.1v-9.3h16.3c1.1,0,1.9-0.8,1.9-1.9c0-1.1-0.8-1.9-1.9-1.9H50c-1.1,0-2,0.9-2,2.1V215.5z"/>
				<path d="M87.7,217.9h0.2c1.1,0,1.8-0.6,2.2-1.6l11.4-26.4c0.1-0.3,0.2-0.5,0.2-0.8c0-1-0.9-2-2-2c-0.9,0-1.6,0.7-2,1.4
					c0,0,0,0,0,0l-9.9,23.7L78,188.6c-0.4-0.9-1.1-1.5-2.1-1.5c-1.1,0-2.1,1-2.1,2c0,0.4,0.1,0.6,0.2,0.9l11.4,26.3
					C85.8,217.3,86.6,217.9,87.7,217.9z"/>
				<path d="M107.2,189.2v26.6c0,1.1,0.9,2.1,2,2.1c1.1,0,2.1-0.9,2.1-2.1v-26.6c0-1.1-0.9-2.1-2.1-2.1
					C108.1,187.1,107.2,188,107.2,189.2z"/>
				<path d="M139.2,187.3L139.2,187.3h-18.4c-1.1,0-2,0.9-2,2.1v26.2c0,1.1,0.9,2.1,2,2.1h18.6c1.1,0,1.9-0.8,1.9-1.9
					c0-1.1-0.8-1.9-1.9-1.9h-16.5v-9.6h14.4c1.1,0,1.9-0.8,1.9-1.9c0-1-0.8-1.9-1.9-1.9h-14.4v-9.3h16.3c1.1,0,1.9-0.8,1.9-1.9
					C141,188.2,140.2,187.3,139.2,187.3z"/>
				<path d="M175.4,218h0.3c1,0,1.7-0.7,2-1.7c0,0,9.5-26.3,9.5-26.3c0,0,0,0,0,0c0.1-0.3,0.2-0.6,0.2-0.9c0-1-1-2-2.1-2
					c-1,0-1.7,0.6-2,1.6c0,0-7.8,22.5-7.8,22.5l-7.4-22.5c-0.3-0.9-1-1.6-2-1.6H166c-1.1,0-1.7,0.6-2,1.6l-7.4,22.5l-7.8-22.4
					c-0.3-0.9-1.1-1.6-2.1-1.6c-1.1,0-2.1,1-2.1,2.1c0,0.3,0.1,0.6,0.2,0.9l9.5,26.3c0.3,1,1.1,1.7,2,1.7h0.3c1,0,1.7-0.7,2-1.7
					l7.3-21.7l7.3,21.7C173.7,217.3,174.4,218,175.4,218z"/>
				<path d="M208.8,209.5L208.8,209.5c0,2.8-2.5,4.7-6.2,4.7c-3.7,0-6.4-1.1-9.1-3.4l0,0c-0.3-0.3-0.7-0.5-1.3-0.5c-1.1,0-2,0.9-2,2
					c0,0.7,0.3,1.2,0.8,1.6c3.4,2.7,7,4,11.4,4c6.1,0,10.5-3.5,10.5-8.7v-0.1c0-4.7-3.1-7.2-9.9-8.7c-6.2-1.3-7.7-2.7-7.7-5.4V195
					c0-2.5,2.3-4.4,5.9-4.4c2.7,0,5,0.7,7.4,2.5c0.4,0.3,0.7,0.4,1.2,0.4c1.1,0,2-0.9,2-2c0-0.8-0.5-1.3-0.9-1.7c0,0,0,0,0,0
					c-2.8-2-5.7-3-9.6-3c-5.9,0-10.1,3.6-10.1,8.4v0.1c0,5,3.2,7.4,10.2,8.9c0,0,0,0,0,0C207.3,205.6,208.8,206.9,208.8,209.5z"/>
				<path d="M217.6,213.7L217.6,213.7c-0.8,0-1.4,0.6-1.4,1.3v0.5c0,0.8,0.6,1.4,1.4,1.4c0.8,0,1.3-0.6,1.3-1.4
					c0,0.1-0.1,0.2-0.2,0.2c0,0,0.2,0,0.2-0.2V215C218.9,214.2,218.3,213.7,217.6,213.7z M216.4,215.7
					C216.4,215.7,216.4,215.7,216.4,215.7C216.4,215.7,216.4,215.7,216.4,215.7z"/>
				<path d="M222.4,205.1v10.6c0,0.6,0.5,1.1,1.1,1.1c0.6,0,1.1-0.5,1.1-1.1v-10.6c0-0.6-0.5-1.1-1.1-1.1
					C222.9,203.9,222.4,204.5,222.4,205.1z M222.2,200.8c0,0.7,0.6,1.2,1.3,1.2c0.7,0,1.3-0.5,1.3-1.2v-0.3c0-0.7-0.6-1.2-1.3-1.2
					c-0.7,0-1.3,0.5-1.3,1.2V200.8z"/>
				<path class="st3" d="M240.9,210.4L240.9,210.4c0-3.6-2.8-6.6-6.6-6.6c-3.8,0-6.6,3-6.6,6.6l0,0l0,0v0c0,3.6,2.8,6.6,6.6,6.6
					C238,217,240.9,214,240.9,210.4z M238.5,210.4L238.5,210.4c0-2.5-1.9-4.6-4.3-4.6c-2.5,0-4.2,2.1-4.2,4.5v0
					c0,2.5,1.8,4.5,4.3,4.5C236.8,214.9,238.5,212.9,238.5,210.4z"/>
				<path class="st4" d="M170.6,58.1l-5.9,3c11.5,9.3,17.1,21.3,18.2,35.9c-0.9,28.1-14.1,46.1-36.9,53.8
					c-26.3,7.9-42.9,1.5-59-14.9l-1,6.3l6.6,6.8c22.8,23.7,60.6,24.5,84.3,1.7s24.5-60.6,1.7-84.3L170.6,58.1z"/>
				<path class="st5" d="M82.7,138.6l4-3.5C70.2,111.8,69.5,77.7,92,58.9c16.7-13.9,49.8-21.1,76.3,2.2l2-3.5l-6.5-6.7
					c-22.8-23.7-60.6-24.5-84.3-1.7c-23.7,22.8-24.5,60.6-1.7,84.3L82.7,138.6z"/>
				<path class="st1" d="M128.2,154.9c30.3,0,54.9-24.6,54.9-54.9c0-30.3-24.6-54.9-54.9-54.9c-30.3,0-54.9,24.6-54.9,54.9
					C73.4,130.4,97.9,154.9,128.2,154.9z"/>
				<path d="M68.5,100.1c0,33,26.8,59.8,59.8,59.8c33,0,59.8-26.8,59.8-59.8c0-33-26.8-59.8-59.8-59.8
					C95.2,40.3,68.5,67.1,68.5,100.1z M110.5,109.3c0.3-1,0-2.2-0.9-2.8c-4.3-3.2-17.2-12.8-23.2-17.3c-0.4-0.3-0.6-0.9-0.5-1.4
					c0.2-0.5,0.7-0.9,1.2-0.9c7.2,0,22.6,0,27.9,0c1.1,0,2.1-0.7,2.4-1.8c1.7-5.3,7-21,9.3-28.2c0.2-0.5,0.7-0.9,1.2-0.9
					c0.6,0,1,0.4,1.2,0.9c2.4,7.2,7.7,23,9.4,28.2c0.3,1,1.3,1.7,2.4,1.7c5.3,0,20.7,0,27.9,0c0.6,0,1,0.4,1.2,0.9
					c0.2,0.5,0,1.1-0.4,1.4c-5.9,4.5-18.8,14.1-23.1,17.4c-0.9,0.7-1.2,1.8-0.9,2.8c1.7,5.3,6.7,21.2,9.1,28.6
					c0.2,0.5,0,1.1-0.5,1.4c-0.5,0.3-1.1,0.3-1.5,0c-6-4.6-18.9-14.5-23.3-17.9c-0.9-0.7-2.2-0.7-3.1,0
					c-4.4,3.4-17.1,13.2-23.1,17.9c-0.4,0.3-1.1,0.4-1.5,0c-0.5-0.3-0.7-0.9-0.5-1.4C103.8,130.6,108.9,114.6,110.5,109.3z"/>
			</g>
		</g>
	</g>
</g>
</svg>
