<?xml version="1.0" encoding="utf-8"?>
<!-- Generator: Adobe Illustrator 18.1.1, SVG Export Plug-In . SVG Version: 6.00 Build 0)  -->
<svg version="1.1" id="reviews-logo" xmlns="http://www.w3.org/2000/svg" xmlns:xlink="http://www.w3.org/1999/xlink" x="0px"
	 y="0px" viewBox="0 0 209.8 35" enable-background="new 0 0 209.8 35" xml:space="preserve">
<path fill="#12CF6C" d="M17.7,2C9,2,2,9.1,2,17.8C2,26.5,9,33.6,17.7,33.6s15.8-7.1,15.8-15.8C33.5,9.1,26.5,2,17.7,2z M25.2,28.9
	l-7.4-5.7l-7.4,5.7l2.9-9.3l-7.3-5.7h8.9L17.7,5l3,8.9h8.9l-7.3,5.7L25.2,28.9z"/>
<g>
	<path d="M40.7,6.5c0-0.8,0.7-1.5,1.4-1.5h9.5c3.1,0,5.6,0.9,7.2,2.5c1.2,1.2,2,3,2,5v0.1c0,4.2-2.8,6.6-6.8,7.4l6.3,8.1
		c0.3,0.3,0.5,0.7,0.5,1.1c0,0.8-0.7,1.4-1.5,1.4c-0.6,0-1-0.3-1.3-0.8l-7.2-9.3h-7.3v8.6c0,0.8-0.7,1.5-1.5,1.5
		c-0.8,0-1.4-0.7-1.4-1.5V6.5z M51.4,18c3.8,0,6.5-2,6.5-5.2v-0.1c0-3.1-2.4-5-6.5-5h-7.8V18H51.4z"/>
	<path d="M66.6,29V6.5C66.6,5.7,67.2,5,68,5h15.8c0.7,0,1.3,0.6,1.3,1.3c0,0.7-0.6,1.3-1.3,1.3H69.4v8.7h12.7c0.7,0,1.3,0.6,1.3,1.3
		c0,0.7-0.6,1.3-1.3,1.3H69.4v8.9H84c0.7,0,1.3,0.6,1.3,1.3c0,0.7-0.6,1.3-1.3,1.3H68C67.2,30.4,66.6,29.8,66.6,29z"/>
	<path d="M98.7,29.5L88.9,6.9c-0.1-0.2-0.1-0.4-0.1-0.7c0-0.7,0.7-1.4,1.5-1.4c0.7,0,1.2,0.5,1.5,1.1l8.8,21.1l8.8-21.1
		c0.3-0.5,0.8-1,1.4-1c0.8,0,1.4,0.7,1.4,1.4c0,0.2,0,0.4-0.1,0.6l-9.8,22.7c-0.3,0.7-0.8,1.2-1.7,1.2h-0.1
		C99.5,30.7,99,30.3,98.7,29.5z"/>
	<path d="M117.4,6.3c0-0.8,0.7-1.5,1.4-1.5c0.8,0,1.5,0.7,1.5,1.5v22.9c0,0.8-0.7,1.5-1.5,1.5c-0.8,0-1.4-0.7-1.4-1.5V6.3z"/>
	<path d="M127.4,29V6.5c0-0.8,0.7-1.5,1.4-1.5h15.8c0.7,0,1.3,0.6,1.3,1.3c0,0.7-0.6,1.3-1.3,1.3h-14.3v8.7h12.7
		c0.7,0,1.3,0.6,1.3,1.3c0,0.7-0.6,1.3-1.3,1.3h-12.7v8.9h14.5c0.7,0,1.3,0.6,1.3,1.3c0,0.7-0.6,1.3-1.3,1.3h-16
		C128,30.4,127.4,29.8,127.4,29z"/>
	<path d="M149.8,7c-0.1-0.2-0.1-0.4-0.1-0.7c0-0.8,0.7-1.5,1.5-1.5c0.7,0,1.3,0.5,1.5,1.2l7,20.2L166.3,6c0.2-0.7,0.7-1.1,1.4-1.1
		h0.2c0.7,0,1.2,0.5,1.4,1.1l6.6,20.3L183,6c0.2-0.7,0.7-1.1,1.4-1.1c0.8,0,1.5,0.7,1.5,1.4c0,0.2-0.1,0.5-0.2,0.7l-8.1,22.6
		c-0.3,0.7-0.8,1.2-1.5,1.2h-0.2c-0.7,0-1.2-0.5-1.5-1.2L167.7,10l-6.6,19.5c-0.3,0.7-0.8,1.2-1.5,1.2h-0.2c-0.7,0-1.2-0.5-1.5-1.2
		L149.8,7z"/>
	<path d="M189.4,27.4c-0.3-0.2-0.5-0.6-0.5-1.1c0-0.8,0.6-1.4,1.4-1.4c0.4,0,0.7,0.1,0.9,0.3c2.4,2,4.8,3,8,3c3.4,0,5.7-1.8,5.7-4.3
		v-0.1c0-2.4-1.3-3.7-6.6-4.8c-5.8-1.3-8.5-3.2-8.5-7.3v-0.1c0-4,3.5-6.9,8.4-6.9c3.3,0,5.8,0.8,8.1,2.5c0.3,0.2,0.6,0.6,0.6,1.2
		c0,0.8-0.6,1.4-1.4,1.4c-0.3,0-0.6-0.1-0.8-0.3c-2.1-1.6-4.2-2.2-6.6-2.2c-3.3,0-5.4,1.8-5.4,4.1v0.1c0,2.4,1.3,3.7,6.9,4.9
		c5.7,1.2,8.3,3.3,8.3,7.2v0.1c0,4.4-3.6,7.2-8.7,7.2C195.3,30.8,192.2,29.7,189.4,27.4z"/>
</g>
</svg>
